<?xml version="1.0" encoding="UTF-8"?><svg id="Layer_2" xmlns="http://www.w3.org/2000/svg" xmlns:xlink="http://www.w3.org/1999/xlink" viewBox="0 0 444.57 444.57"><defs><style>.cls-1{fill:url(#linear-gradient);}</style><linearGradient id="linear-gradient" x1="357.58" y1="86.12" x2="59.4" y2="384.3" gradientTransform="matrix(1, 0, 0, 1, 0, 0)" gradientUnits="userSpaceOnUse"><stop offset="0" stop-color="#2b32b2"/><stop offset=".19" stop-color="#2937b3"/><stop offset=".43" stop-color="#2548b8"/><stop offset=".71" stop-color="#1d63c0"/><stop offset="1" stop-color="#1488cc"/></linearGradient></defs><g id="Layer_1-2"><path class="cls-1" d="M426.42,196.78c-4.92-40.17-21.44-76.79-46.16-106.37,2.08-3.51,3.29-7.59,3.29-11.96,0-13-10.54-23.54-23.54-23.54-4.74,0-9.14,1.41-12.84,3.82-29.87-22.85-66.16-37.68-105.66-41.28-2.68-10.05-11.82-17.46-22.72-17.46s-20.6,7.86-22.95,18.38c-38.04,5-72.82,20.43-101.38,43.35-3.8-2.64-8.42-4.2-13.4-4.2-13,0-23.54,10.54-23.54,23.54,0,5.04,1.59,9.69,4.29,13.52-22.81,28.77-38.06,63.76-42.77,101.99-10.85,2.1-19.05,11.63-19.05,23.1s7.92,20.66,18.48,22.98c3.93,38.9,18.81,74.61,41.44,104.05-2.6,3.79-4.13,8.37-4.13,13.31,0,13,10.54,23.54,23.54,23.54,4.62,0,8.91-1.35,12.55-3.65,28.99,24.04,64.68,40.22,103.8,45.39,2.01,10.96,11.59,19.27,23.13,19.27s20.58-7.85,22.94-18.35c39.86-3.68,76.44-18.81,106.44-42.06,3.67,2.36,8.02,3.74,12.7,3.74,13,0,23.54-10.54,23.54-23.54,0-4.4-1.23-8.51-3.34-12.04,25.19-30.52,41.74-68.42,45.89-109.92,10.12-2.64,17.59-11.81,17.59-22.75s-7.75-20.45-18.15-22.89Zm-66.41-94.79c4.82,0,9.3-1.45,13.03-3.94,22.75,27.57,38.02,61.51,42.83,98.67-6.38,1.43-11.76,5.44-15.02,10.89l-60.12-22.54c.06-.66,.1-1.33,.1-2,0-7.94-3.95-14.95-9.97-19.21l26.31-62.04c.93,.11,1.88,.19,2.84,.19Zm-12.7-3.74l-26.13,61.62c-1.27-.21-2.56-.35-3.89-.35-10.1,0-18.69,6.37-22.03,15.31l-108.74-25.05c0-1.6-.18-3.17-.49-4.69l154.31-53.73c1.81,2.75,4.19,5.1,6.96,6.88ZM218.8,47.07c11.48,0,21.03-8.22,23.1-19.1,36.55,3.59,70.16,17.32,97.98,38.33-2.15,3.55-3.4,7.7-3.4,12.15,0,1.06,.09,2.09,.23,3.11l-155.09,54c-1.23-1.6-2.67-3.03-4.26-4.26l40.68-84.27c.25,0,.5,.04,.76,.04Zm-22.89-18.16c1.56,6.67,5.94,12.25,11.84,15.4l-39.87,82.6c-1.57-.33-3.19-.51-4.86-.51-4.99,0-9.61,1.56-13.41,4.21l-47.28-39.48c1.45-3.05,2.28-6.46,2.28-10.06,0-4.22-1.13-8.17-3.07-11.6,26.67-21.26,59.01-35.66,94.37-40.56ZM46.5,214.56l97.77-50.42c4.26,5.62,10.97,9.27,18.55,9.33l33.51,107.11c-2.03,1.61-3.78,3.55-5.18,5.74L46.21,225.92c.55-1.99,.87-4.08,.87-6.25,0-1.76-.21-3.47-.57-5.11Zm23.1-112.95c3.4,1.9,7.3,2.99,11.47,2.99,5.61,0,10.75-1.97,14.79-5.24l46.68,38.98c-1.94,3.42-3.07,7.37-3.07,11.59,0,1.6,.16,3.16,.47,4.67l-97.94,50.51c-3.11-3.94-7.46-6.85-12.46-8.17,4.58-35.68,18.83-68.36,40.05-95.33Zm9.73,234.87c-4.26,0-8.24,1.15-11.68,3.12-20.98-27.56-34.79-60.84-38.64-97.06,4.82-1.15,9.05-3.77,12.21-7.37l146.39,61c-.11,.93-.19,1.87-.19,2.83,0,2.79,.51,5.46,1.4,7.95l-88.53,42.42c-3.89-7.64-11.81-12.88-20.97-12.88Zm116.8,78.34c-36.43-5-69.7-20.07-96.84-42.36,2.26-3.61,3.58-7.87,3.58-12.44,0-.09-.01-.18-.01-.28l91.66-43.92c2.35,2.29,5.18,4.08,8.32,5.24l5.48,78.93c-5.92,2.96-10.41,8.32-12.19,14.82Zm9.75-138.79l-32.8-104.84c4.9-2.33,8.86-6.29,11.19-11.19l109.61,25.25c.36,3.93,1.69,7.57,3.74,10.7l-75.18,82.52c-3.4-1.9-7.31-3-11.48-3-1.75,0-3.44,.21-5.08,.57Zm35.85,139.71c-2.41-10.44-11.74-18.24-22.92-18.24-.06,0-.12,0-.18,0l-5.22-75.1c5.62-.58,10.65-3.15,14.39-6.98l109.59,48.35c0,.2-.03,.4-.03,.6,0,4.5,1.29,8.7,3.48,12.28-28.06,21.46-62.08,35.49-99.12,39.09Zm98.31-62.23l-106.74-47.09c.78-2.33,1.21-4.82,1.21-7.41,0-5.04-1.6-9.7-4.29-13.52l74.96-82.28c3.55,2.14,7.69,3.4,12.14,3.4,.98,0,1.94-.08,2.88-.19l28.02,138.17c-3.45,2.21-6.27,5.29-8.18,8.93Zm33.77-8.8c-3.71-2.44-8.14-3.87-12.91-3.87-.93,0-1.84,.07-2.73,.17l-28.03-138.23c3.03-1.97,5.56-4.63,7.41-7.75l60.07,22.53c-.06,.7-.11,1.4-.11,2.11,0,11.42,8.13,20.93,18.91,23.08-4.12,38.41-19.44,73.5-42.62,101.96Z"/></g></svg>